<?xml version="1.0" standalone="no"?>
<!DOCTYPE svg PUBLIC "-//W3C//DTD SVG 20010904//EN"
 "http://www.w3.org/TR/2001/REC-SVG-20010904/DTD/svg10.dtd">
<svg version="1.0" xmlns="http://www.w3.org/2000/svg"
 width="6468.000000pt" height="6468.000000pt" viewBox="0 0 6468.000000 6468.000000"
 preserveAspectRatio="xMidYMid meet">
<metadata>
Created by potrace 1.14, written by Peter Selinger 2001-2017
</metadata>
<g transform="translate(0.000000,6468.000000) scale(0.100000,-0.100000)"
fill="#000000" stroke="none">
<path d="M32305 57763 c-11 -2 -126 -27 -255 -54 -129 -28 -408 -89 -620 -136
-212 -47 -412 -91 -445 -98 -135 -29 -752 -171 -1065 -245 -2507 -590 -5086
-1290 -7595 -2061 -459 -142 -1115 -348 -1126 -355 -4 -2 -15 -30 -24 -62
-514 -1819 -1377 -3398 -2553 -4672 -193 -208 -537 -547 -717 -705 -44 -38
-84 -75 -90 -81 -5 -6 -55 -49 -110 -95 -55 -46 -102 -86 -105 -89 -3 -3 -81
-67 -175 -141 -675 -537 -1349 -964 -2165 -1372 -241 -121 -310 -154 -510
-245 -93 -42 -461 -199 -550 -233 -41 -16 -84 -34 -95 -39 -27 -13 -290 -112
-445 -167 -892 -321 -1832 -574 -2880 -777 -145 -28 -642 -116 -658 -116 -3 0
3 -208 13 -465 2 -60 7 -171 10 -245 3 -74 7 -178 10 -230 3 -52 7 -147 10
-210 3 -63 7 -149 10 -190 2 -41 7 -127 10 -190 3 -63 8 -137 10 -165 2 -27 7
-104 10 -170 3 -66 8 -140 10 -165 2 -25 7 -88 10 -140 3 -52 8 -120 10 -150
6 -62 11 -133 20 -265 3 -49 8 -106 10 -125 3 -19 7 -73 10 -120 3 -47 7 -105
10 -130 2 -25 7 -79 10 -120 3 -41 10 -122 16 -180 5 -58 12 -132 15 -165 3
-33 10 -105 15 -160 5 -55 12 -125 15 -155 2 -30 7 -71 9 -90 2 -19 7 -64 10
-100 4 -36 15 -144 25 -240 10 -96 21 -204 25 -240 3 -36 8 -76 10 -90 2 -14
7 -50 10 -80 3 -30 12 -107 20 -170 8 -63 17 -140 20 -170 3 -30 8 -66 10 -80
2 -14 7 -50 10 -80 4 -30 8 -66 10 -80 2 -14 9 -65 15 -115 6 -49 13 -105 16
-122 8 -61 13 -98 34 -258 20 -153 39 -284 60 -425 5 -36 21 -144 35 -240 14
-96 32 -215 40 -265 24 -147 105 -648 110 -675 2 -14 15 -88 29 -165 13 -77
27 -156 31 -175 76 -445 203 -1098 322 -1650 36 -168 69 -323 73 -345 39 -189
233 -1008 325 -1370 91 -356 125 -487 216 -820 11 -38 22 -79 24 -90 6 -25
182 -649 195 -690 6 -16 37 -122 71 -235 33 -113 97 -322 141 -465 44 -143 92
-298 107 -345 36 -119 386 -1160 459 -1365 420 -1187 960 -2521 1450 -3585 16
-36 56 -121 87 -190 54 -117 157 -337 290 -615 85 -179 400 -812 518 -1040
140 -271 256 -494 277 -530 10 -16 41 -75 70 -130 29 -55 105 -194 168 -310
63 -115 129 -235 145 -265 287 -528 861 -1494 1291 -2174 798 -1261 1796
-2675 2655 -3761 378 -478 993 -1232 1185 -1453 13 -15 85 -99 161 -187 75
-88 160 -187 189 -219 77 -90 429 -490 436 -496 3 -3 63 -70 135 -150 107
-120 400 -442 455 -500 8 -9 67 -72 130 -140 182 -195 439 -468 605 -640 331
-345 1568 -1571 1695 -1680 14 -12 57 -52 95 -89 103 -99 326 -306 495 -461
57 -52 108 -100 114 -106 6 -5 88 -79 181 -163 94 -85 188 -170 210 -190 22
-20 83 -75 135 -121 52 -47 97 -87 100 -90 9 -10 548 -480 740 -644 102 -88
201 -173 221 -190 20 -17 55 -47 79 -66 24 -19 48 -40 54 -45 6 -6 133 -112
281 -236 1495 -1244 3113 -2463 4774 -3597 l104 -71 91 63 c50 35 188 130 306
211 1205 833 2426 1739 3540 2629 240 191 707 571 805 654 11 10 49 41 85 71
205 169 598 502 839 711 117 102 236 205 264 228 29 24 70 60 92 80 22 21 96
86 165 147 109 96 406 361 420 375 3 3 50 46 104 95 55 50 107 97 116 105 9 8
65 60 125 115 102 93 186 171 325 300 802 746 1787 1729 2505 2500 72 77 145
155 164 175 33 35 178 193 216 235 11 12 119 132 241 266 121 134 291 325 379
424 87 99 170 194 184 210 54 61 408 472 451 524 25 30 72 86 106 125 238 279
786 956 1110 1370 156 201 209 270 533 701 1219 1625 2255 3208 3238 4955 496
881 1041 1937 1454 2818 102 217 129 275 239 517 138 304 260 579 320 720 23
55 51 120 62 144 63 140 224 527 405 976 400 990 825 2185 1166 3275 116 371
372 1237 392 1326 2 10 23 84 45 164 127 446 417 1595 505 2005 8 33 30 132
50 220 125 554 307 1464 415 2080 70 398 193 1154 225 1385 3 25 12 88 20 140
8 52 16 111 19 130 3 19 14 105 26 190 12 85 23 166 25 180 5 32 82 637 90
710 3 30 8 66 10 80 2 14 7 52 10 85 3 33 7 71 10 85 2 14 7 52 10 85 3 33 8
76 10 95 2 19 9 82 15 140 6 58 13 119 15 135 3 17 9 75 14 130 6 55 13 123
16 150 9 85 34 356 40 425 3 36 7 85 10 110 8 85 15 165 20 235 3 39 8 86 10
105 2 19 7 76 10 125 3 50 8 106 10 125 2 19 7 73 10 120 3 47 8 105 10 130 2
25 7 88 10 140 3 52 10 149 15 215 5 66 12 174 16 240 3 66 7 136 9 155 2 19
6 98 10 175 4 77 8 151 10 165 2 14 7 100 10 191 4 91 8 181 10 199 2 19 6
120 10 224 3 105 8 214 10 241 2 28 7 163 10 301 l7 252 -28 6 c-16 3 -112 20
-213 37 -102 17 -192 32 -200 34 -9 1 -92 17 -186 35 -774 146 -1631 361
-2325 584 -2267 728 -4044 1790 -5440 3252 -77 80 -118 125 -245 265 -22 24
-90 103 -150 174 -1020 1203 -1771 2634 -2250 4284 -19 69 -37 126 -38 127 -1
1 -60 20 -132 42 -71 22 -218 68 -325 102 -786 247 -1642 505 -2515 759 -360
104 -1106 315 -1465 414 -91 25 -230 64 -310 86 -143 39 -577 156 -635 171
-16 4 -246 65 -510 135 -700 184 -1866 477 -2410 605 -66 15 -246 58 -400 95
-532 126 -1454 334 -1995 450 -118 25 -265 57 -326 71 -112 24 -123 25 -159
17z"/>
</g>
</svg>
